<svg t="1721360708495" class="icon" viewBox="0 0 1024 1024" version="1.1" xmlns="http://www.w3.org/2000/svg" p-id="4414" width="32" height="32"><path d="M482.085 41.204a58.08 58.08 0 0 1 59.83 0l453.863 272.34c19.981 11.966 30.141 34.092 27.94 55.823v190.215c0 20.433-16.538 36.97-36.97 36.97-20.208 0-36.633-16.255-36.971-36.406V444.324l-80.15 54.073v212.454c0 61.185-23.932 119.943-66.66 163.686-75.748 77.554-173.508 116.5-290.854 116.5-117.346 0-215.107-38.946-290.854-116.5a234.004 234.004 0 0 1-66.66-161.88V498.454L25.625 411.53c-26.359-17.78-33.47-53.395-16.199-79.924l0.508-0.79c4.741-7.055 11.007-12.926 18.288-17.328L482.085 41.204z m313.488 507.202L544.512 717.85a58.097 58.097 0 0 1-65.024 0l-251.06-169.444v162.501c0 41.881 16.368 82.07 45.606 111.984C335.5 885.826 414.07 917.152 512 917.152s176.5-31.326 237.966-94.26a160.018 160.018 0 0 0 45.607-110.743V548.406zM512 109.501L87.657 364.118 512 650.569l424.343-286.451L512 109.5z" p-id="4415"></path></svg>