<svg t="1721642271233" class="icon" viewBox="0 0 1024 1024" version="1.1" xmlns="http://www.w3.org/2000/svg" p-id="2207" width="32" height="32"><path d="M888.55529245 526.29170252H136.06608592c-16.777216 0-30.44754015-13.67032415-30.44754014-30.44754015S119.28886992 465.39662222 136.06608592 465.39662222h752.48920653c16.777216 0 30.44754015 13.67032415 30.44754014 30.44754015 0.62137837 16.777216-13.04894578 30.44754015-30.44754014 30.44754015zM478.445568 882.96288711V130.47368059c0-16.777216 13.67032415-30.44754015 30.44754015-30.44754014s30.44754015 13.67032415 30.44754015 30.44754014v752.48920652c0 16.777216-13.67032415 30.44754015-30.44754015 30.44754014s-30.44754015-13.67032415-30.44754015-30.44754014zM509.51448652 943.85796741c-241.0948077 0-437.45037275-196.35556503-437.45037274-437.45037274s196.35556503-437.45037275 437.45037274-437.45037275S946.96485925 265.31278697 946.96485925 506.40759467 750.60929422 943.85796741 509.51448652 943.85796741z m0-815.24842193c-208.16175408 0-377.79804918 169.63629511-377.79804919 377.79804919s169.63629511 377.79804918 377.79804919 377.79804918 377.79804918-169.63629511 377.79804918-377.79804918-169.63629511-377.79804918-377.79804918-377.79804919zM444.891136 929.56626489c-395.19664355-485.91788563-0.62137837-845.0745837 3.10689185-848.80285392l39.7682157 44.73924266-19.88410785-22.36962133 19.88410785 22.36962133c-14.91308089 13.04894578-355.42842785 325.60226608 3.10689186 766.78090904l-45.98199941 37.28270222z m139.81013333 0l-45.98199941-37.28270222c358.5353197-440.55726459 18.01997275-753.11058489 3.10689186-766.78090904l39.7682157-44.73924266c3.72827022 3.72827022 398.30353541 363.50634667 3.10689185 848.80285392z" p-id="2208"></path></svg>