<svg t="1721619414745" class="icon" viewBox="0 0 1024 1024" version="1.1" xmlns="http://www.w3.org/2000/svg" p-id="2063" width="32" height="32"><path d="M332 362a30 30 0 0 0 0 60h79.98a30 30 0 0 0 0-60H332z m0 160.02a30 30 0 1 0 0 60h79.98a30 30 0 0 0 0-60H332z m0 159.96a30 30 0 0 0 0 60h79.98a30 30 0 1 0 0-60H332z"  p-id="2064"></path><path d="M581.96 292.22l211.38 90.6c11.58 4.92 22.14 9.48 30.54 14.04 9.06 4.98 18.3 11.34 25.5 21.3 7.38 10.2 10.26 21 11.52 31.44 1.08 9 1.08 19.62 1.08 30.48v401.94h49.98a30 30 0 1 1 0 60H111.98a30 30 0 1 1 0-60h49.98V300.74c0-11.4 0-22.2 1.08-31.38 1.14-10.38 3.78-21.12 10.74-31.5 6.84-10.2 15.72-16.86 24.72-22.14 8.16-4.8 18.42-9.54 29.52-14.64L411.2 116.6c27.48-12.72 51-23.52 70.26-29.4 20.1-6 42.72-8.94 64.08 3.24 22.2 12.6 30.18 34.08 33.48 54.6 3 18.9 3 43.5 3 71.52v75.6zM434.3 171.98l-180 83.04c-12.6 5.82-20.16 9.36-25.44 12.48a31.32 31.32 0 0 0-5.22 3.78s-0.12 0.12-0.24 0.54a23.04 23.04 0 0 0-0.78 4.2c-0.6 5.46-0.6 12.9-0.6 26.04v579.96h300v-663c0-31.2-0.12-50.88-2.34-64.5a35.52 35.52 0 0 0-3-10.92c-0.42-0.78-0.6-0.84-0.84-0.96l-0.06-0.06c-0.36-0.18-0.96-0.6-3.06-0.6a50.34 50.34 0 0 0-13.98 2.7c-14.76 4.5-34.38 13.44-64.44 27.3z m147.66 710.04h220.02V481.4c0-12.78 0-19.68-0.6-24.72a18.42 18.42 0 0 0-0.72-3.48l-0.06-0.06-0.66-0.6a34.08 34.08 0 0 0-4.8-3 353.58 353.58 0 0 0-26.58-12.06L581.96 357.5v524.52z"  p-id="2065"></path></svg>