<svg t="1721360850793" class="icon" viewBox="0 0 1403 1024" version="1.1" xmlns="http://www.w3.org/2000/svg" p-id="5598" width="32" height="32"><path d="M1206.777 76.865A252.315 252.315 0 0 0 1019.453 0.087a298.827 298.827 0 0 0-201.342 73.91 109.273 109.273 0 0 1-31.858 20.39 202.935 202.935 0 0 1-85.38 17.84 205.483 205.483 0 0 1-84.741-16.566 111.821 111.821 0 0 1-31.858-20.39A298.827 298.827 0 0 0 382.294 0.088a252.315 252.315 0 0 0-187.96 76.778C86.971 191.235 0 469.673 0 732.819 0 933.205 107.043 1024 223.005 1024a257.73 257.73 0 0 0 187.006-86.653 1460.047 1460.047 0 0 0 99.715-116.6 154.83 154.83 0 0 1 122.335-60.212h139.537a154.83 154.83 0 0 1 120.423 60.212 1460.047 1460.047 0 0 0 100.034 115.007 259.642 259.642 0 0 0 187.643 86.972c115.644 0 222.05-90.795 222.05-289.907 0-263.146-86.973-541.584-194.971-655.954z m-26.123 850.287a165.98 165.98 0 0 1-117.875-56.388 1435.835 1435.835 0 0 1-95.573-108.636 248.173 248.173 0 0 0-197.838-97.166H631.105a248.173 248.173 0 0 0-197.838 97.166 1388.048 1388.048 0 0 1-95.573 108.636 162.475 162.475 0 0 1-114.689 56.07c-79.007 0-127.431-73.274-127.431-195.608 0-254.863 86.016-500.488 169.165-589.053a159.29 159.29 0 0 1 117.556-46.512 202.616 202.616 0 0 1 135.077 47.468 202.616 202.616 0 0 0 58.937 38.23A300.739 300.739 0 0 0 700.874 207.8a305.199 305.199 0 0 0 123.608-26.124 205.483 205.483 0 0 0 59.893-39.185 202.616 202.616 0 0 1 135.078-46.831 159.29 159.29 0 0 1 118.192 46.512c82.512 88.565 168.529 332.915 168.529 590.646 0 121.06-46.831 194.333-125.52 194.333z" p-id="5599"></path><path d="M547.319 398.63h-79.645v-79.964a47.787 47.787 0 1 0-95.574 0v79.645h-79.645a47.787 47.787 0 0 0 0 95.574H372.1v79.644a47.787 47.787 0 0 0 95.574 0v-79.644h79.645a47.787 47.787 0 0 0 0-95.574z m433.904-111.822a159.29 159.29 0 1 0 159.29 159.29 159.29 159.29 0 0 0-159.29-159.29z m0 223.006a63.716 63.716 0 1 1 63.716-63.716 63.716 63.716 0 0 1-63.716 63.716z" p-id="5600"></path></svg>