<svg t="1721378102560" class="icon" viewBox="0 0 1024 1024" version="1.1" xmlns="http://www.w3.org/2000/svg" p-id="2143" width="32" height="32"><path d="M919.552 200.24888889c-5.68888889-3.29955555-11.94666667-5.00622222-18.31822222-5.00622222-8.53333333 0-16.95288889 3.072-23.77955556 8.98844444l-183.97866667 161.56444444-150.18666666-239.50222222c-6.82666667-10.80888889-18.77333333-16.27022222-30.83377778-16.27022222-12.06044445 0-24.12088889 5.46133333-30.83377778 16.27022222L331.20711111 366.02311111l-184.09244444-161.56444444c-6.82666667-5.91644445-15.24622222-8.98844445-23.66577778-8.98844445-6.25777778 0-12.51555555 1.70666667-18.31822222 5.00622223-13.42577778 7.85066667-20.59377778 23.66577778-17.97688889 39.3671111l87.38133333 511.43111112c3.072 18.09066667 11.60533333 30.49244445 29.58222222 30.49244444h616.448s1.36533333 0.34133333 3.41333334 0.34133334c6.71288889 0 21.61777778-3.29955555 26.28266666-30.83377778L937.52888889 239.616c2.61688889-15.70133333-4.43733333-31.40266667-17.97688889-39.36711111zM788.36622222 714.52444445H236.43022222l-68.72177777-402.54577778 119.2391111 104.56177778 59.392 52.11022222 41.984-66.90133334 124.01777778-198.08711111 124.24533334 197.85955556 41.984 66.78755555 59.392-52.11022222 119.12533333-104.67555556L788.36622222 714.52444445zM826.02666667 871.87911111H198.656c-12.40177778 0-22.41422222 10.01244445-22.41422222 22.41422222v22.41422222c0 12.40177778 10.01244445 22.41422222 22.41422222 22.41422223H826.02666667c12.40177778 0 22.41422222-10.01244445 22.41422222-22.41422223V894.29333333c0-12.40177778-10.01244445-22.41422222-22.41422222-22.41422222z" p-id="2144"></path></svg>