<svg t="1721619536042" class="icon" viewBox="0 0 1024 1024" version="1.1" xmlns="http://www.w3.org/2000/svg" p-id="2651" width="32" height="32"><path d="M748.858 496.591c58.797-42.168 95.676-109.894 95.676-181.703 0-124.102-100.139-225.048-223.23-225.048-70.799 0-133.931 33.24-175.04 84.88-16.65-4.474-34.038-7.1-52.07-7.1-112.828 0-204.614 92.107-204.614 205.345 0 65.624 29.292 124.986 77.704 162.798-84.082 42.245-139.263 127.593-139.263 222.819v149.105c0 13.81 11.193 25.013 25.003 25.013h716.775c13.809 0 25.004-11.204 25.004-25.013V742.712c-0.001-108.26-56.815-201.193-145.945-246.12z m-570.83 261.991c0-89.432 64.632-170.927 153.684-193.8 10.505-2.723 18.06-11.865 18.74-22.68 0.67-10.814-5.688-20.811-15.764-24.818-57.777-22.796-95.102-79.473-95.102-144.319 0-85.658 69.36-155.338 154.607-155.338 8.287 0 16.407 0.72 24.334 2.023-13.558 28.951-21.347 61.16-21.347 95.237 0 73.521 33.347 139.846 88.244 181.12-94.847 45.668-157.369 140.624-157.369 246.705v139.96H178.027v-124.09z m666.768 124.091H378.061V742.712c0-100.364 72.743-191.935 172.96-217.686a24.957 24.957 0 0 0 18.739-22.641c0.68-10.814-5.688-20.85-15.764-24.818-64.886-25.636-106.81-89.51-106.81-162.68 0-96.522 78.111-175.023 174.117-175.023 95.521 0 173.222 78.501 173.222 175.023 0 70.253-45.99 135.644-114.435 162.68-10.075 3.968-16.445 14.004-15.772 24.818 0.681 10.814 8.237 19.957 18.74 22.64 96.734 24.858 161.737 112.343 161.737 217.687v139.961z" p-id="2652"></path></svg>