<svg t="1721360423842" class="icon" viewBox="0 0 1024 1024" version="1.1" xmlns="http://www.w3.org/2000/svg" p-id="3080" width="32" height="32"><path d="M400.896 67.008a32 32 0 0 1 34.08 4.48c5.456 4.56 11.648 9.584 18.384 15.04 40.288 32.688 100.608 81.6 146.448 150.528 27.872 41.92 50.16 96.368 65.312 140.512 4.064 11.84 7.68 23.088 10.768 33.376 13.76-18.32 26.672-44.32 30.928-80.944a32 32 0 0 1 59.76-11.84c25.6 46.112 31.024 57.264 54.64 130.128C845.664 523.68 848 573.072 848 618.048 848 809.632 696.88 960 512 960c-183.952 0-336-142.8-336-335.296 0-43.616 4.56-109.44 35.52-161.072 21.584-36.032 36.912-52.928 56.288-74.24 5.824-6.432 12-13.248 18.848-21.104 5.44-6.272 9.904-11.296 13.664-15.552 7.888-8.912 12.8-14.464 17.728-21.056 6.608-8.816 13.088-19.472 25.408-43.248 10.496-20.272 20.432-52.704 27.696-89.28 7.2-36.176 11.264-73.76 11.264-103.152a32 32 0 0 1 18.48-28.992z m41.248 93.28a699.232 699.232 0 0 1-8.224 51.328c-7.728 38.944-19.088 78.16-33.648 106.256-12.736 24.608-21.152 39.024-30.976 52.16-6.576 8.8-13.984 17.152-22.976 27.328-3.52 3.984-7.312 8.24-11.376 12.928-8.336 9.584-15.28 17.248-21.408 24-18.128 20-28.992 31.968-47.136 62.24m0 0c-21.392 35.712-26.4 86.24-26.4 128.16C240 780.64 362.176 896 512 896c148.912 0 272-121.104 272-277.952 0-40.576-1.888-82.88-23.664-150.016-6.4-19.776-11.312-34.528-15.584-46.464-22.128 41.536-51.52 63.984-63.792 73.376a254.56 254.56 0 0 0-2.992 2.304 32 32 0 0 1-51.776-23.44c-0.032 0-0.192-1.28-0.88-4.512a369.408 369.408 0 0 0-4.16-16.992 823.488 823.488 0 0 0-16.56-53.952c-14.544-42.352-34.72-90.736-58.08-125.84-31.216-46.944-69.696-82.992-104.368-112.24" p-id="3081"></path><path d="M424.016 472.416a32 32 0 0 1 1.968 45.216c-23.84 25.984-64.4 102.384-26.272 189.536a32 32 0 1 1-58.64 25.664c-51.456-117.648 2.88-220.448 37.728-258.448a32 32 0 0 1 45.216-1.968z" p-id="3082"></path></svg>