<svg t="1721372653269" class="icon" viewBox="0 0 1024 1024" version="1.1" xmlns="http://www.w3.org/2000/svg" p-id="2136" width="32" height="32"><path d="M933.44340702 657.28796192H762.24719328V486.09045365c0-17.77401047-14.96874604-32.7427565-32.7427565-32.7427565s-32.7427565 14.96874604-32.74275651 32.7427565v171.19750827H525.564172c-17.77401047 0-32.74146196 14.9674515-32.74146195 32.74146196s14.9674515 32.7427565 32.74146195 32.7427565h171.19750827v171.19750827c0 17.77401047 14.96874604 32.7427565 32.74275651 32.7427565s32.7427565-14.96874604 32.7427565-32.7427565V722.77218038h171.19621374c17.77401047 0 32.7427565-14.9674515 32.7427565-32.7427565s-14.03279486-32.74146196-32.7427565-32.74146196z" p-id="2137"></path><path d="M602.27592091 906.13058117c-43.96899239 21.51652062-91.67920039 32.7427565-141.2600162 32.74275651h-12.16218706c-176.81062622 0-321.81315255-144.06657517-321.81315255-319.94125022 0-72.96923875 24.32437413-142.1972619 70.16397431-200.19775463L448.85242311 88.50150337l226.39144201 299.36197529c11.22623589 14.03279486 31.80680533 16.8380593 45.83960021 6.54777458 14.03279486-11.22623589 16.83935383-31.80680533 6.5490691-45.83960018L483.46708195 23.01728489c-0.93595117-0.93595117-1.87060781-2.80655897-2.80655896-3.74251014-8.41967692-8.41967692-18.70996163-13.0968437-30.87085417-13.09684369-12.16218706 0-22.45247179 4.67716677-30.8721487 13.09684369-0.93595117 0.93595117-1.87060781 1.87060781-2.80655897 3.74121561l-219.84366744 289.07039604-49.58081581 65.48551301c-55.19522829 69.22802315-84.19547465 152.48754663-84.19547465 240.42423689 0 212.35864715 174.00406723 385.42676322 387.29866557 385.42676322h12.16089251c59.87239506 0 116.93823115-13.0968437 169.32560594-39.29053109 15.90340267-7.48372575 23.38842295-27.12963856 14.96874603-43.9689924-8.41967692-15.90340267-28.06558973-22.45117725-43.96899239-14.03279486z" p-id="2138"></path><path d="M198.13919605 600.22212583a35.54802094 35.54802094 0 1 0 71.09733641 0 35.54802094 35.54802094 0 1 0-71.09733641 0zM223.39822681 708.74068005a35.54802094 35.54802094 0 1 0 71.09733641 0 35.54802094 35.54802094 0 1 0-71.09863095 0zM302.91524014 786.3870856a35.54802094 35.54802094 0 1 0 71.09863095 0 35.54802094 35.54802094 0 1 0-71.09863095 0z" p-id="2139"></path></svg>