<svg t="1721620402491" class="icon" viewBox="0 0 1024 1024" version="1.1" xmlns="http://www.w3.org/2000/svg" p-id="2207" width="32" height="32"><path d="M512 62a360 360 0 0 1 330.84 502.2l114.12 171.18a30 30 0 0 1-20.76 46.32l-195.84 27.96-82.68 137.76a30 30 0 0 1-50.64 1.2l-95.1-142.56-94.98 142.56a30 30 0 0 1-47.52 3.18l-3.18-4.38-82.62-137.76-195.9-27.96a30 30 0 0 1-20.7-46.32l114.12-171.24A360 360 0 0 1 512 62zM213.62 623.54l-70.2 105.48 162.84 23.28a30 30 0 0 1 21.48 14.28l65.58 109.32 65.28-97.8a360 360 0 0 1-244.98-154.56z m351.78 154.5l65.22 97.86 65.64-109.32a30 30 0 0 1 21.48-14.28l162.84-23.28-70.26-105.42A360 360 0 0 1 565.4 778.04zM512 122a300 300 0 1 0 0 600 300 300 0 0 0 0-600z m0 120a180 180 0 1 1 0 360 180 180 0 0 1 0-360z m0 60a120 120 0 1 0 0 240 120 120 0 0 0 0-240z"  p-id="2208"></path></svg>