<svg t="1721628549709" class="icon" viewBox="0 0 1024 1024" version="1.1" xmlns="http://www.w3.org/2000/svg" p-id="2207" width="32" height="32"><path d="M422 541.99970703a60.00029297 60.00029297 0 0 1 60.00029297 60.00029297v270a60.00029297 60.00029297 0 0 1-60.00029297 60.00029297H152A60.00029297 60.00029297 0 0 1 91.99970703 872V602a60.00029297 60.00029297 0 0 1 60.00029297-60.00029297h270z m450 0a60.00029297 60.00029297 0 0 1 60.00029297 60.00029297v270a60.00029297 60.00029297 0 0 1-60.00029297 60.00029297H602a60.00029297 60.00029297 0 0 1-60.00029297-60.00029297V602a60.00029297 60.00029297 0 0 1 60.00029297-60.00029297h270z m-450 60.00029297H152v270h270V602z m450 0H602v270h270V602z m-450-510.00029297a60.00029297 60.00029297 0 0 1 60.00029297 60.00029297v270a60.00029297 60.00029297 0 0 1-60.00029297 60.00029297H152A60.00029297 60.00029297 0 0 1 91.99970703 422V152A60.00029297 60.00029297 0 0 1 152 91.99970703h270z m450 0a60.00029297 60.00029297 0 0 1 60.00029297 60.00029297v270a60.00029297 60.00029297 0 0 1-60.00029297 60.00029297H602a60.00029297 60.00029297 0 0 1-60.00029297-60.00029297V152A60.00029297 60.00029297 0 0 1 602 91.99970703h270z m-450 60.00029297H152v270h270V152z m450 0H602v270h270V152z" p-id="2208"></path></svg>