<svg t="1721360578949" class="icon" viewBox="0 0 1052 1024" version="1.1" xmlns="http://www.w3.org/2000/svg" p-id="3375" width="32" height="32"><path d="M461.08 844.502a32.075 32.075 0 0 1-22.205-9.87l-220.21-230.695a32.075 32.075 0 0 1 0-41.328l453.99-536.644a28.991 28.991 0 0 1 21.588-11.103L1019.931 0.058a28.374 28.374 0 0 1 22.823 9.252 30.842 30.842 0 0 1 9.252 23.44l-16.037 308.416a31.458 31.458 0 0 1-10.487 21.59L481.436 836.483a29.608 29.608 0 0 1-20.355 8.019zM282.817 581.114L462.931 771.1l511.971-445.353L987.24 61.74 709.664 74.078z" p-id="3376"></path><path d="M298.237 555.207l-246.733-3.7a28.991 28.991 0 0 1-25.29-14.805 31.458 31.458 0 0 1 0-29.608l152.974-313.35a30.225 30.225 0 0 1 30.225-17.272L533.25 202.38l-4.935 61.683-302.864-24.673-123.367 250.434 196.77 3.701z m296.08 458.924a28.374 28.374 0 0 1-14.188-3.701 28.991 28.991 0 0 1-16.037-23.44L535.1 740.257l61.683-7.402 20.355 201.087 225.144-123.366-30.225-308.416 61.684-6.169 32.692 331.856a30.842 30.842 0 0 1-16.038 30.225L609.12 1010.43a30.842 30.842 0 0 1-14.804 3.7z" p-id="3377"></path><path d="M375.711 443.437l44.535-42.685 233.595 243.464-44.474 42.685zM-0.002 822.481l143.537-160.377 45.954 41.081L45.952 863.624z m186.345 160.006l143.6-160.376 45.953 41.08-143.599 160.377z" p-id="3378"></path></svg>