<svg t="1721628676918" class="icon" viewBox="0 0 1024 1024" version="1.1" xmlns="http://www.w3.org/2000/svg" p-id="2793" width="32" height="32"><path d="M807.35644531 471.32421875v322.33007813c0 40.31542969-32.80078125 73.11621094-73.11621094 73.11621093H289.75976562c-40.31542969 0-73.11621094-32.80078125-73.11621093-73.11621093V471.32421875h590.71289062m70.34765625-70.34765625H146.29589844v392.67773438c0 79.23339844 64.23046875 143.46386719 143.46386719 143.46386718h444.48046875c79.23339844 0 143.46386719-64.23046875 143.46386718-143.46386718V400.9765625z" p-id="2794"></path><path d="M879.69921875 229.44921875h-67.5c6.24902344-37.65234375-5.1328125-77.66015625-34.18945313-106.71679688-23.89746094-23.89746094-55.23046875-35.85058594-86.55468749-35.85058593s-62.65722656 11.953125-86.5546875 35.85058594L512.16699219 215.45703125 419.43359375 122.73242187c-23.89746094-23.89746094-55.22167969-35.85058594-86.5546875-35.85058593s-62.65722656 11.953125-86.5546875 35.85058594c-23.89746094 23.89746094-35.85058594 55.22167969-35.85058594 86.54589843 0 6.75 0.55371094 13.5 1.66113282 20.17089844H144.29199219C98.84375 229.44921875 62 266.29296875 62 311.75v76.55273438c0 45.45703125 36.84375 82.30078125 82.30078125 82.30078124h735.40722656c45.45703125 0 82.30078125-36.84375 82.30078125-82.30078125v-76.55273437c0-45.45703125-36.84375-82.30078125-82.30078125-82.30078125zM654.64648438 172.46972656c9.83496094-9.83496094 22.90429688-15.24023438 36.80859374-15.24023437s26.98242188 5.40527344 36.80859375 15.24023437c15.38085938 15.38085938 19.09863281 38.06542969 11.1796875 56.97949219H597.66699219l56.97949218-56.97949219z m-358.57617188 0c9.83496094-9.83496094 22.90429688-15.24023438 36.80859375-15.24023437s26.98242188 5.40527344 36.80859375 15.24023437l56.97949219 56.97949219H284.890625c-7.91894531-18.9140625-4.20117188-41.59863281 11.1796875-56.97949219z m595.58203125 215.83300781c0 6.58300781-5.35253906 11.953125-11.953125 11.953125H144.30078125c-6.58300781 0-11.953125-5.36132813-11.953125-11.953125v-76.55273437c0-6.58300781 5.36132813-11.953125 11.953125-11.953125h735.40722656c6.59179688 0 11.953125 5.36132813 11.953125 11.953125v76.55273437z" p-id="2795"></path><path d="M476.82617187 273.45605469h70.34765626v617.86230469h-70.34765625z" p-id="2796"></path></svg>