<svg t="1721628808192" class="icon" viewBox="0 0 1024 1024" version="1.1" xmlns="http://www.w3.org/2000/svg" p-id="2207" width="32" height="32"><path d="M645.03281251 688.8546875l-96.0459375-96.046875a33.305625 33.305625 0 0 1 47.086875-47.0859375L692.11875001 641.76875l51.49875-51.4996875L401.35875001 248.009375a166.8628125 166.8628125 0 0 0-235.9725 235.93125l342.2596875 342.3 54.121875-54.121875L465.72187501 676.0746875a33.305625 33.305625 0 0 1 47.086875-47.086875l96.0459375 96.046875 36.178125-36.1790625zM529.21125001 897.4325a33.305625 33.305625 0 0 1-45.795-1.24875L118.30031251 531.06875A233.475 233.475 0 1 1 448.44375001 200.9225l59.20125 59.16 63.24-63.1978125a233.475 233.475 0 1 1 330.144375 330.144375L535.99781251 892.0625a37.59375 37.59375 0 0 1-6.7865625 5.4121875z m25.5628125-590.221875l235.93125 235.93125 63.28125-63.19875A166.8628125 166.8628125 0 0 0 617.97187501 243.970625l-63.1565625 63.1978125z" p-id="2208"></path></svg>