<svg t="1721371865565" class="icon" viewBox="0 0 1024 1024" version="1.1" xmlns="http://www.w3.org/2000/svg" p-id="6488" width="32" height="32"><path d="M848 848a32 32 0 1 1 0 64H176a32 32 0 1 1 0-64h672z m48-736a64 64 0 0 1 64 64v512a64 64 0 0 1-64 64H128a64 64 0 0 1-64-64V176a64 64 0 0 1 64-64h768z m0 64H128v512h768V176z" p-id="6489"></path><path d="M624.672 272l113.792 114.288L784 432 624.672 592l-45.536-45.712 113.808-114.304-113.808-114.272L624.672 272z m-225.344 0l45.536 45.712L331.04 432l113.824 114.288L399.328 592 285.52 477.696v0.016L240 432l159.328-160z" p-id="6490"></path></svg>