<svg t="1721377194565" class="icon" viewBox="0 0 1024 1024" version="1.1" xmlns="http://www.w3.org/2000/svg" p-id="2285" width="32" height="32"><path d="M996.582 314.624c-5.392-6.16-17.872-20.784-34.336-40.016-49.568-57.92-132.48-154.864-170.656-196.016-15.76-17.024-35.408-38.192-73.392-39.696-2.784-0.08-11.2-0.4-117.76-0.4-121.152 0-292.272 0.384-292.176 0.384-18.128 0-45.744 4.112-76.192 39.728-22.336 26.176-57.008 66.208-92.096 106.736-44.704 51.632-90.08 104.032-111.392 129.408-37.072 42.944-38 102.816-2.432 156.32l2.352 3.12c42 48.912 133.328 153.92 241.2 277.952l167.68 192.864c30.976 35.664 55.408 40.496 75.264 40.496 20.848 0 44.384-4.928 75.248-40.48l173.424-199.52C863.366 628.208 949.75 528.896 997.078 473.76c31.6-38.128 40.608-109.584-0.496-159.136z m-48.464 117.872C901.19 487.12 814.886 586.352 712.982 703.504L539.542 903.04c-16.016 18.432-22.32 18.432-26.928 18.432-4.336 0-10.912 0-26.912-18.432L318.006 710.128C211.398 587.568 120.95 483.584 78.406 434.08c-18.816-29.232-19.328-56.688-1.12-77.792 21.504-25.568 66.64-77.68 111.072-129.008a22137.6 22137.6 0 0 0 92.384-107.072c14.768-17.296 22.416-17.296 27.568-17.296 0 0 171.024-0.384 292.096-0.384 91.68 0 111.664 0.24 115.328 0.368 9.968 0.384 13.744 2.896 28.88 19.232 37.296 40.208 119.712 136.544 168.96 194.112a8046.864 8046.864 0 0 0 34.24 39.904c18.768 22.576 15.024 58.576 0.304 76.352z m-239.76-55.264L511.942 628.784l-196.16-252.24c-2-3.152-2.608-3.152-5.44-3.152h-95.696v44.224h2.288c18.096 0 24.784 4.704 32.224 14.624 0.72 0.992 1.584 2.128 3.28 4.24 43.136 58.64 212.224 264.112 259.936 328.112 47.68-64.064 216.672-269.664 260.368-328.928 1.056-1.264 1.872-2.384 2.608-3.344 7.472-9.968 14.192-14.688 32.208-14.688h2.176v-44.304h-95.36c-2.688-0.016-3.488-0.016-6.016 3.904z" p-id="2286"></path></svg>