<svg t="1721628637147" class="icon" viewBox="0 0 1088 1024" version="1.1" xmlns="http://www.w3.org/2000/svg" p-id="2500" width="32" height="32"><path d="M1018.19187177 348.18260292L870.4321042 70.94320596C866.10111787 66.44348018 861.71388417 62 857.38289785 62H222.80897393c-4.33098633 0-8.71822002 4.49972666-13.04920635 8.94320596L62 343.73912276c0 8.94320596 0 13.44293262 4.33098633 17.88641279l452.05376924 590.25161777a28.40452295 28.40452295 0 0 0 43.47860712 0l451.99752276-590.25161777a16.87397432 16.87397432 0 0 0 4.33098633-13.44293263zM622.6659169 124.37745839l69.2957874 196.86303194H383.61794873l69.57701982-196.86303193z m-373.7585294 1e-8H388.23016836l-69.80200664 196.86303193H144.56998057l104.33740693-196.86303193zM157.61918691 383.95542763h165.13996114l130.37957402 393.72606563-295.57578164-393.72606563z m382.47674942 447.16031719l-151.86576797-447.16031719h303.73153594z m82.56998057-53.65923838l134.99179365-398.00080459H922.57268487L622.6659169 777.45650644z m134.99179365-456.10352314L687.85570391 124.37745839h143.42878036l99.95017413 196.86303194z" p-id="2501"></path></svg>