<svg t="1721371635371" class="icon" viewBox="0 0 1024 1024" version="1.1" xmlns="http://www.w3.org/2000/svg" p-id="6042" width="32" height="32"><path d="M229.5 176c0-59.371 48.129-107.5 107.5-107.5h349c59.371 0 107.5 48.129 107.5 107.5v255.5c0 155.744-126.256 282-282 282s-282-126.256-282-282V176zM337 123.5c-28.995 0-52.5 23.505-52.5 52.5v255.5c0 125.369 101.631 227 227 227s227-101.631 227-227V176c0-28.995-23.505-52.5-52.5-52.5H337z" p-id="6043"></path><path d="M738.5 135.5H859c56.057 0 101.5 45.443 101.5 101.5v87c0 83.671-67.829 151.5-151.5 151.5h-70.5v-340z m55 55v230H809c53.295 0 96.5-43.205 96.5-96.5v-87c0-25.681-20.819-46.5-46.5-46.5h-65.5z m-509-55H164c-56.057 0-101.5 45.443-101.5 101.5v87c0 83.671 67.829 151.5 151.5 151.5h70.5v-340z m-55 55v230H214c-53.295 0-96.5-43.205-96.5-96.5v-87c0-25.681 20.819-46.5 46.5-46.5h65.5z m255 609.5V696.5h55V800h-55z" p-id="6044"></path><path d="M229.5 859c0-38.384 31.116-69.5 69.5-69.5h425c38.384 0 69.5 31.116 69.5 69.5v28c0 38.384-31.116 69.5-69.5 69.5H299c-38.384 0-69.5-31.116-69.5-69.5v-28z m69.5-14.5c-8.008 0-14.5 6.492-14.5 14.5v28c0 8.008 6.492 14.5 14.5 14.5h425c8.008 0 14.5-6.492 14.5-14.5v-28c0-8.008-6.492-14.5-14.5-14.5H299z" p-id="6045"></path></svg>