<svg t="1721620797099" class="icon" viewBox="0 0 1078 1024" version="1.1" xmlns="http://www.w3.org/2000/svg" p-id="2063" width="32" height="32"><path d="M537.71856875 976.8425c-10.104375 0-25.2628125-5.053125-30.315-15.1584375L42.56106875 441.2628125C32.45575625 426.10625 27.40356875 405.8946875 37.50794375 390.7371875L214.35138125 52.210625C219.40356875 42.104375 234.56106875 32 249.71856875 32h570.9478125c15.1575 0 30.3159375 10.1053125 35.368125 25.2628125l176.8425 338.5265625c10.1053125 15.1584375 5.053125 35.368125-5.053125 45.4734375L568.03450625 966.7371875c-10.1053125 5.053125-20.210625 10.1053125-30.3159375 10.1053125z m-409.2628125-570.946875l409.2628125 464.840625 409.26375-464.840625-151.57875-288H274.98138125l-146.5265625 288z" p-id="2064"></path><path d="M537.71856875 724.210625c-10.104375 0-25.2628125-5.053125-30.315-15.1584375L234.56106875 410.9478125c-15.1575-20.210625-15.1575-45.474375 5.053125-60.631875 15.1575-15.1584375 40.4203125-15.1584375 55.57875 0l237.4734375 262.73625 237.4734375-262.73625c20.210625-15.1584375 45.474375-15.1584375 65.6840625 0 15.1584375 15.1575 20.210625 40.42125 5.053125 60.631875L573.08763125 709.0521875c-15.1584375 10.10625-25.26375 15.1584375-35.3690625 15.1584375z" p-id="2065"></path></svg>