<svg t="1721619560185" class="icon" viewBox="0 0 1024 1024" version="1.1" xmlns="http://www.w3.org/2000/svg" p-id="2798" width="32" height="32"><path d="M511.94990234 62a449.94990234 449.94990234 0 1 1 0 899.89980469A449.94990234 449.94990234 0 0 1 511.94990234 62z m0 49.99482422a399.95507813 399.95507813 0 1 0 0 799.91015625 399.95507813 399.95507813 0 0 0 0-799.91015625z" p-id="2799"></path><path d="M511.94990234 111.99482422a149.98359375 149.98359375 0 1 1 0 299.96630859 149.98359375 149.98359375 0 0 1 0-299.96630859z m0 49.99394531a99.98876953 99.98876953 0 1 0 0 199.97753906 99.98876953 99.98876953 0 0 0 0-199.97753906z m0 449.94990235a149.98359375 149.98359375 0 1 1 0 299.9671875 149.98359375 149.98359375 0 0 1 0-299.9671875z m0 49.99482421a99.98876953 99.98876953 0 1 0 0 199.97753907 99.98876953 99.98876953 0 0 0 0-199.97753907z m249.97236328-299.9671875a149.98359375 149.98359375 0 1 1 0 299.9671875 149.98359375 149.98359375 0 0 1 0-299.9671875z m0 49.99482422a99.98876953 99.98876953 0 1 0 0 199.97753907 99.98876953 99.98876953 0 0 0 0-199.97753907zM261.97753906 361.96630859a149.98359375 149.98359375 0 1 1 0 299.9671875 149.98359375 149.98359375 0 0 1 0-299.9671875z m0 49.99482422a99.98876953 99.98876953 0 1 0 0 199.97753906 99.98876953 99.98876953 0 0 0 0-199.97753906z"  p-id="2800"></path><path d="M511.94990234 411.96113281a99.98876953 99.98876953 0 1 1 0 199.97753907 99.98876953 99.98876953 0 0 1 0-199.97753907z m0 49.99482422a49.99482422 49.99482422 0 1 0 0 99.98876953 49.99482422 49.99482422 0 0 0 0-99.98876953zM691.12988281 873.05996094a24.99697266 24.99697266 0 0 1 30.69667969-9.09931641l3.99902344 2.14980469 62.34345703 41.59599609a24.99697266 24.99697266 0 0 0 9 3.69931641l4.89902344 0.50009766h134.83476562a24.99697266 24.99697266 0 0 1 4.5 49.59404296l-4.5 0.39990235H802.06806641a74.99179687 74.99179687 0 0 1-35.296875-8.79873047l-6.2991211-3.79951172-62.39355468-41.59511719a24.99697266 24.99697266 0 0 1-6.94863282-34.64648437z"  p-id="2801"></path></svg>