<svg t="1721360589920" class="icon" viewBox="0 0 1024 1024" version="1.1" xmlns="http://www.w3.org/2000/svg" p-id="3524" width="32" height="32"><path d="M942.952 66.5a25.447 25.447 0 0 0-15.572-0.96 25.58 25.58 0 0 0-7.237 2.621L78.553 525.27l-0.096 0.053a27.862 27.862 0 0 0-14.018 29.551 27.862 27.862 0 0 0 23.203 22.506l387.181 62.358L576.66 940.063a27.86 27.86 0 0 0 26.559 19.286c11.556 0 21.9-7.093 26.049-17.925L957.493 99.63c5.132-13.164-1.378-27.997-14.54-33.128zM604.73 863.513L518.17 608.245c-3.693-10.889-14-17.663-24.92-17.363l-330.342-53.205L884.62 145.68 604.73 863.51z" p-id="3525"></path></svg>