<svg t="1721619499822" class="icon" viewBox="0 0 1024 1024" version="1.1" xmlns="http://www.w3.org/2000/svg" p-id="2503" width="32" height="32"><path d="M516.5 951.875a31.5 31.5 0 0 1-22.5-9.5625L265.625 695.9375a28.6875 28.6875 0 0 1-8.4375-20.8125V163.8125A92.25 92.25 0 0 1 349.4375 72.125h325.125a92.25 92.25 0 0 1 92.25 91.6875v393.75a30.9375 30.9375 0 1 1-61.875 0v-393.75a30.375 30.375 0 0 0-30.375-30.375H349.4375a30.375 30.375 0 0 0-30.375 30.375V644.1875H737a30.9375 30.9375 0 0 1 28.125 18.5625 30.375 30.375 0 0 1-5.0625 32.625l-219.375 246.375a29.25 29.25 0 0 1-22.5 10.125zM358.4375 706.0625l158.0625 168.75 150.75-168.75z"  p-id="2504"></path><path d="M415.8125 584a30.9375 30.9375 0 0 1-30.375-30.9375v-450a30.9375 30.9375 0 0 1 61.3125 0v450a30.9375 30.9375 0 0 1-30.9375 30.9375z"  p-id="2505"></path></svg>