<svg t="1721642247370" class="icon" viewBox="0 0 1024 1024" version="1.1" xmlns="http://www.w3.org/2000/svg" p-id="2300" width="32" height="32"><path d="M509.6 124.64c6.24 0 12 0.48 18.24 0.96l6.24 0.48V32h-48.96v93.6l5.28-0.48c6.24 0 12.96-0.48 19.2-0.48zM210.08 400.64H116.48v48.96h93.6l-0.48-6.24c-0.48-5.76-0.96-12-0.96-18.24 0-6.24 0.48-12.48 0.96-18.72l0.48-5.76z m72.48-172.32c9.6-11.04 19.68-21.12 30.24-30.24l2.4-1.92-66.24-66.24-34.56 34.56 66.24 66.24 1.92-2.4z m227.04-66.24c-144.96 0-263.04 118.08-263.04 263.04 0 92.64 49.92 179.52 130.08 226.56V880.64c0 61.44 49.92 111.36 111.36 111.36H531.2c61.44 0 111.36-49.92 111.36-111.36V651.2c80.16-47.04 130.08-133.92 130.08-226.08 0-144.96-118.08-263.04-263.04-263.04z m84 699.84c-1.44 45.12-38.4 81.12-84 81.12-22.56 0-43.68-8.64-59.52-24.48-15.36-15.36-24-35.04-24.48-56.64h168zM425.6 812.96v-37.44h168v37.44H425.6z m169.44-201.6l-1.44 0.96V726.08H425.6V612.32l-1.44-0.96c-72.48-33.6-119.52-106.56-119.52-186.24 0-113.28 92.16-204.96 204.96-204.96 54.72 0 106.56 21.12 144.96 60 38.88 38.88 60 90.24 60 144.96 0 79.68-46.56 153.12-119.52 186.24z m214.08-210.72l0.48 6.24c0.48 5.76 0.96 12 0.96 18.24 0 6.24-0.48 12.48-0.96 18.72l-0.48 5.76h93.6v-48.96h-93.6zM704 196.16l2.4 1.92c11.04 9.12 21.12 19.68 30.24 30.24l1.92 2.4 66.24-66.24-34.56-34.56-66.24 66.24z" p-id="2301"></path></svg>