<svg t="1722415982628" class="icon" viewBox="0 0 1055 1024" version="1.1" xmlns="http://www.w3.org/2000/svg" p-id="2735" width="200" height="200"><path d="M1005.59837 197.72h-3.45L534.11237 0 65.95137 200.659v112.727h939.647zM907.44137 412.564c13.548 0 24.412-19.171 24.412-32.974s-10.864-33.103-24.412-33.103H763.01837c-13.548 0-24.54 19.172-24.54 33.103s10.992 32.974 24.54 32.974h11.758v347.127h-11.758a24.795 24.795 0 0 0 0 49.59H907.44137a24.795 24.795 0 0 0 0-49.59h-17.254V412.565z m-316.453 0c12.78 0 24.411-19.171 24.411-32.974s-10.991-33.103-24.411-33.103H446.43737c-12.781 0-24.412 19.172-24.412 33.103s10.992 32.974 24.412 32.974h15.081v347.127h-15.081a24.795 24.795 0 0 0 0 49.59h144.55a24.795 24.795 0 0 0 0-49.59h-14.058V412.565z m-298.944 0c13.548 0 24.412-19.171 24.412-32.974s-10.864-33.103-24.412-33.103h-144.55c-12.782 0-24.412 19.172-24.412 33.103s10.991 32.974 24.411 32.974h17.382v347.127h-17.382a24.795 24.795 0 0 0 0 49.59h144.551a24.795 24.795 0 0 0 0-49.59h-11.758V412.565z m739.116 545.997H23.77537C10.61037 958.562 0.00137 964.186 0.00137 977.733v21.983A24.028 24.028 0 0 0 23.77537 1024h1007.385a24.156 24.156 0 0 0 23.9-24.284v-21.983c0-13.547-10.736-19.17-23.9-19.17zM94.19737 924.95h884.178c12.78 0 27.223-19.3 27.223-34.253v-16.36a33.614 33.614 0 0 0-27.223-32.08H94.19737a34.508 34.508 0 0 0-28.246 32.08v16.36c0 14.954 15.082 34.253 28.246 34.253z" p-id="2736"></path></svg>