<svg t="1722416264759" class="icon" viewBox="0 0 1024 1024" version="1.1" xmlns="http://www.w3.org/2000/svg" p-id="2310" width="200" height="200"><path d="M738.18172682 152.22192355c52.81716148 0 102.52743111 20.50548622 139.81013333 58.40956682 77.05091792 77.6722963 77.05091792 203.81210548 0 281.48440178l-364.12772504 371.58426548-364.74910341-370.96288711c-77.05091792-77.6722963-77.05091792-203.81210548 0-281.48440177l0.62137838-0.62137838c37.28270222-37.28270222 86.37159348-57.16681008 139.18875495-57.16681007 52.81716148 0 102.52743111 20.50548622 139.81013334 57.78818845L456.07594667 238.59351703l57.16681008 57.78818845 57.16681007-57.78818845 27.96202666-27.96202666 1.24275674-1.24275674c36.66132385-36.66132385 86.37159348-57.16681008 138.5673766-57.16681008m0-80.77918814c-70.83713422 0-141.67426845 26.71926992-195.73418667 80.77918814l-1.24275674 1.24275675-27.96202666 27.96202667-27.96202667-27.96202667C431.22081185 98.7833837 359.76229925 71.44273541 288.30378667 71.44273541c-70.83713422 0-141.67426845 26.71926992-195.73418667 80.77918814l-1.24275675 1.24275675c-108.74121482 109.36259318-108.74121482 286.45542875 0 395.81802192L468.50351408 933.29453511c12.42756741 12.42756741 28.58340503 18.64135111 44.73924267 18.64135111 16.15583763 0 31.69029689-6.2137837 44.11786428-18.01997274l0.62137838-0.62137837 377.17667081-384.63321126c108.74121482-109.36259318 108.74121482-286.45542875 0-395.81802193-54.05991822-54.05991822-125.51843082-81.40056652-196.9769434-81.40056651z" p-id="2311"></path></svg>