<svg t="1722415915852" class="icon" viewBox="0 0 1024 1024" version="1.1" xmlns="http://www.w3.org/2000/svg" p-id="2280" width="200" height="200"><path d="M977.455 465.455c-25.6 0-46.546 20.945-46.546 46.545C930.91 742.4 742.4 930.91 512 930.91S93.09 742.4 93.09 512 281.6 93.09 512 93.09c25.6 0 46.545-20.945 46.545-46.545S537.6 0 512 0C230.4 0 0 230.4 0 512s230.4 512 512 512 512-230.4 512-512c0-25.6-20.945-46.545-46.545-46.545z" p-id="2281"></path><path d="M716.8 139.636l90.764 11.637-328.146 328.145c-18.618 18.618-18.618 46.546 0 65.164 9.31 9.309 20.946 13.963 32.582 13.963s23.273-4.654 32.582-13.963l328.145-328.146 11.637 90.764c2.327 23.273 23.272 41.89 46.545 41.89h6.982c25.6-2.326 44.218-25.6 39.564-51.2l-18.619-151.272c-4.654-41.89-39.563-76.8-81.454-81.454L726.109 46.545c-25.6-2.327-48.873 13.964-51.2 39.564-2.327 25.6 16.291 48.873 41.891 53.527z" p-id="2282"></path></svg>