<svg t="1722482357719" class="icon" viewBox="0 0 1024 1024" version="1.1" xmlns="http://www.w3.org/2000/svg" p-id="2310" width="200" height="200"><path d="M921.46245531 908.38761876c-10.35630617-86.47515653-41.16631703-168.16052148-88.93477926-236.12378073-41.16631703-58.51312987-93.33620939-104.8576-152.36715457-135.40870321 35.59980247-26.66748839 64.3385521-61.10220642 84.01553383-100.97398519 25.37295013-51.26371555 34.17581037-109.00012247 25.50240394-166.73652938-8.41449876-55.92405333-33.65799506-107.70558419-73.0119585-149.77807803-39.61287111-42.33140148-89.58204839-70.81124347-144.8588326-82.33263407-20.32425086-4.2719763-40.77795555-6.34323753-60.84329876-6.34323754-75.34212741 0-146.15337086 29.38601876-199.35889384 82.59154174s-82.59154173 124.01676642-82.59154172 199.35889382c0 49.58081581 13.20429037 98.38490864 38.188879 140.97521778 19.02971259 32.3634568 44.40266272 60.71384494 74.56540445 83.36826469-59.03094518 30.68055703-111.33029136 77.02502717-152.36715456 135.53815705-47.76846222 67.96325925-78.57847309 149.51917037-88.93477925 236.12378073-2.58907653 21.10097383 4.14252247 42.46085531 18.38244344 58.38367605 14.36937482 16.18172839 34.8230795 25.50240395 56.31241482 25.50240395h671.6064553c21.48933531 0 42.07249383-9.32067555 56.31241482-25.50240395 14.11046717-16.31118222 20.84206617-37.6710637 18.38244346-58.64258371zM404.81223111 608.31364741c26.02021925-11.00357531 43.49648592-35.34089482 45.56774716-63.69128296 1.94180741-28.22093431-11.9097521-54.88842272-36.37652544-69.5167052-58.51312987-34.95253333-93.4656632-95.7958321-93.4656632-162.5940069 0-104.98705383 85.3100721-190.29712592 190.29712592-190.29712593 13.72210569 0 27.83257283 1.4239921 42.07249384 4.40143011 74.56540445 15.53445925 134.50252642 79.74355753 146.02391703 156.12131557 11.65084445 78.06065778-23.30168889 151.84933925-91.13549432 192.49784099-24.3373195 14.49882864-38.18887902 41.0368632-36.37652543 69.51670518 2.07126124 28.35038815 19.41807408 52.68770765 45.56774716 63.69128297 109.51793778 46.2150163 189.00258765 157.41585383 210.36246914 292.04783407H194.0614005C215.93909728 765.72950124 295.55320098 654.39920987 404.81223111 608.31364741z" p-id="2311"></path></svg>