<svg t="1722422026625" class="icon" viewBox="0 0 1024 1024" version="1.1" xmlns="http://www.w3.org/2000/svg" p-id="3011" width="200" height="200"><path d="M602.764 512L442.182 351.418c-13.964-13.963-13.964-34.909 0-48.873 13.963-13.963 34.909-13.963 48.873 0l186.181 186.182c13.964 13.964 13.964 34.91 0 48.873L491.055 723.782c-13.964 13.963-34.91 13.963-48.873 0-13.964-13.964-13.964-34.91 0-48.873L602.764 512zM512 1024C228.073 1024 0 795.927 0 512S228.073 0 512 0s512 228.073 512 512-228.073 512-512 512z m0-46.545C768 977.455 977.455 768 977.455 512S768 46.545 512 46.545 46.545 256 46.545 512 256 977.455 512 977.455z" p-id="3012"></path></svg>