<svg t="1722480954648" class="icon" viewBox="0 0 1024 1024" version="1.1" xmlns="http://www.w3.org/2000/svg" p-id="2310" width="200" height="200"><path d="M334.82903705 217.58293333v79.86631112H150.97893926v424.9645511H334.82903705v79.92547556H126.74541038a56.04010667 56.04010667 0 0 1-55.34151112-50.21582222l-0.34929777-6.52401778V274.32277333c0-28.60373333 20.97152-53.01134222 49.10762667-56.39054222l6.58318222-0.34929778h207.96757333z" p-id="2311"></path><path d="M611.30448593 70.31694222L271.62320593 222.36046222V799.36853333l342.53482667 131.53848889a56.56462222 56.56462222 0 0 0 76.83754666-52.77923555V121.98798222a56.56462222 56.56462222 0 0 0-79.69109333-51.67104z m-0.2912711 87.67260445V844.04906667l-259.52256-99.61472V274.14755555L611.01321483 157.98954667z m308.51413333 34.89336888l55.16629333 57.78773334L840.12752593 379.18151111l-55.22432-57.78773333zM986.34334816 488.69831111v79.86631111H780.8242726V488.64142222zM839.4277926 677.38396445l134.56725333 122.91640888-53.82712888 59.01084445-134.56725334-122.91640889z" p-id="2312"></path></svg>