<svg t="1722482818671" class="icon" viewBox="0 0 1024 1024" version="1.1" xmlns="http://www.w3.org/2000/svg" p-id="2481" width="200" height="200"><path d="M683.008 535.04H340.992c-12.8 0-23.04-10.24-23.04-23.04s10.24-23.04 23.04-23.04h342.016c12.8 0 23.04 10.24 23.04 23.04s-10.24 23.04-23.04 23.04z" p-id="2482"></path><path d="M512 706.048c-12.8 0-23.04-10.24-23.04-23.04V340.992c0-12.8 10.24-23.04 23.04-23.04s23.04 10.24 23.04 23.04v342.016c0 12.8-10.24 23.04-23.04 23.04z" p-id="2483"></path><path d="M512 968.192c-251.392 0-456.192-204.8-456.192-456.192s204.8-456.192 456.192-456.192 456.192 204.8 456.192 456.192-204.8 456.192-456.192 456.192z m0-866.816c-226.304 0-410.624 184.32-410.624 410.624s184.32 410.624 410.624 410.624 410.624-184.32 410.624-410.624-184.32-410.624-410.624-410.624z" p-id="2484"></path></svg>