<svg t="1722409230574" class="icon" viewBox="0 0 1024 1024" version="1.1" xmlns="http://www.w3.org/2000/svg" p-id="2419" width="200" height="200"><path d="M696.47132445 929.48821333L584.81777778 812.97976889C730.45333333 793.56245333 846.96177778 672.19911111 846.96177778 526.56355555c0-140.78065778-106.79978667-262.144-247.58044445-286.41621333l-101.94488888-101.94488889h43.69066666c223.30823111 0 402.92465778 174.76266667 402.92465778 388.36110222 0 145.63555555-87.38133333 276.70755555-208.74353778 339.81667556V963.47022222l-38.83690666-33.98200889z m-106.7986489-19.41731555c-14.56355555 0-33.98200889 4.85376-53.40046222 4.85376-223.30709333 0-402.92465778-174.76266667-402.92465778-388.36110223 0-145.63555555 87.38133333-276.70755555 208.74467556-339.81667555V75.09333333l63.10798222 63.10912 97.09112889 97.08999112C351.80088889 249.856 235.29244445 376.07310222 235.29244445 526.56355555c0 145.63555555 111.65354667 266.99889778 257.28910222 286.41621334l97.09112888 97.09112889z" p-id="2420"></path></svg>