<?xml version="1.0" standalone="no"?><!DOCTYPE svg PUBLIC "-//W3C//DTD SVG 1.1//EN" "http://www.w3.org/Graphics/SVG/1.1/DTD/svg11.dtd"><svg t="1721356969623" class="icon" viewBox="0 0 1024 1024" version="1.1" xmlns="http://www.w3.org/2000/svg" p-id="2339" xmlns:xlink="http://www.w3.org/1999/xlink" width="200" height="200"><path d="M510.208 532.736c-85.248 0-154.88-69.376-154.88-154.88 0-85.248 69.376-154.88 154.88-154.88s154.88 69.376 154.88 154.88-69.376 154.88-154.88 154.88z m0-248.064c-51.456 0-93.44 41.984-93.44 93.44s41.984 93.44 93.44 93.44 93.44-41.984 93.44-93.44-41.984-93.44-93.44-93.44z" p-id="2340"></path><path d="M510.208 852.992l-238.08-238.08c-131.328-131.328-131.328-344.832 0-476.16 63.488-63.488 148.224-98.56 238.08-98.56s174.336 35.072 238.08 98.56 98.56 148.224 98.56 238.08-35.072 174.336-98.56 238.08l-238.08 238.08z m0-751.36c-73.472 0-142.592 28.672-194.56 80.64-107.264 107.264-107.264 281.856 0 389.12l194.56 194.56 194.56-194.56c51.968-51.968 80.64-121.088 80.64-194.56s-28.672-142.592-80.64-194.56c-51.968-51.968-121.088-80.64-194.56-80.64z" p-id="2341"></path><path d="M511.488 976.896c-205.568 0-360.448-73.984-360.448-172.288 0-51.968 42.496-98.304 119.808-130.304 15.616-6.4 33.536 1.024 40.192 16.64 6.4 15.616-1.024 33.536-16.64 40.192-51.2 21.248-81.92 48.64-81.92 73.472 0 46.336 113.92 110.848 299.008 110.848 185.344 0 299.008-64.512 299.008-110.848 0-24.064-29.184-50.944-78.08-71.936-15.616-6.656-22.784-24.832-16.128-40.448 6.656-15.616 24.832-22.784 40.448-16.128 74.24 32 115.2 77.568 115.2 128.256 0.256 98.56-154.88 172.544-360.448 172.544z" p-id="2342"></path></svg>