<?xml version="1.0" standalone="no"?><!DOCTYPE svg PUBLIC "-//W3C//DTD SVG 1.1//EN" "http://www.w3.org/Graphics/SVG/1.1/DTD/svg11.dtd"><svg t="1721356966781" class="icon" viewBox="0 0 1024 1024" version="1.1" xmlns="http://www.w3.org/2000/svg" p-id="2197" xmlns:xlink="http://www.w3.org/1999/xlink" width="200" height="200"><path d="M775.9 172.8C706.8 103.3 611.5 64.1 512 64.1c-99.5 0-194.8 39.2-263.9 108.8-145.6 146.2-145.6 378.3 0 524.5L512 959.9l263.9-262.5c145.6-146.3 145.6-378.3 0-524.6z m-39.7 487.6L511.5 870.3 289.7 650.8c-122.5-121.6-122.5-314.8 0-436.3 58.2-57.7 138.3-90.3 221.9-90.3s163.6 32.6 221.9 90.3c122.4 121.6 126.5 321.9 2.7 445.9zM512.1 273.1c-90.7 0-164.2 73.5-164.2 164.2s73.5 164.2 164.2 164.2S676.3 528 676.3 437.3s-73.5-164.2-164.2-164.2z m0 268.8c-57.7 0-104.5-46.8-104.5-104.5s46.8-104.5 104.5-104.5 104.5 46.8 104.5 104.5-46.8 104.5-104.5 104.5z" p-id="2198"></path></svg>