<svg t="1720509009765" class="icon" viewBox="0 0 1467 1024" version="1.1" xmlns="http://www.w3.org/2000/svg" p-id="2183" width="32" height="32"><path d="M299.145 18.466l917.162 917.163a34.133 34.133 0 0 1-48.264 48.264L250.88 66.731a34.133 34.133 0 1 1 48.265-48.265z m25.429 170.257l50.62 50.62a918.084 918.084 0 0 0-113.87 67.482 829.338 829.338 0 0 0-93.115 75.161l-14.097 13.551c-4.54 4.472-8.909 8.875-13.107 13.312l-12.05 12.902a438.272 438.272 0 0 0-29.286 35.636l-7.304 10.581c-10.001 15.223-15.53 27.648-15.872 35.908-0.615 15.394 23.245 51.37 64.068 93.253l12.732 12.765c28.672 27.921 64.17 57.754 104.448 85.47 140.22 96.495 308.736 155.648 475.887 155.648 75.093 0 150.016-10.99 222.071-31.198l54.682 54.716c-85.265 27.716-178.756 44.749-276.753 44.749-256.58 0-483.84-126.26-612.933-246.033l-13.21-12.561c-12.867-12.561-24.61-24.952-35.156-37.103l-10.138-12.05a468.378 468.378 0 0 1-4.779-5.938l-8.909-11.708C21.606 557.295 7.34 524.732 8.294 501.18c0.854-21.538 13.79-50.654 37-83.525l8.637-11.741 9.455-12.05 5.051-6.075 10.684-12.39 5.632-6.247 11.878-12.63 12.63-12.765c4.369-4.301 8.84-8.568 13.414-12.868l14.131-12.903c12.084-10.786 24.918-21.572 38.435-32.29l16.588-12.8a976.077 976.077 0 0 1 132.745-84.173zM733.628 83.046c400.589 0 725.333 284.843 725.333 418.134 0 42.427-32.904 100.181-90.624 159.198l-12.766 12.663-6.656 6.349-13.858 12.663a546.23 546.23 0 0 1-14.575 12.63l-15.257 12.56c-5.223 4.165-10.514 8.33-15.975 12.46l-16.623 12.356a929.382 929.382 0 0 1-125.474 76.117l-50.995-50.927a880.47 880.47 0 0 0 112.367-63.761c58.231-38.98 106.94-82.295 140.288-123.63 28.057-34.68 41.881-64.103 41.881-78.678 0-14.575-13.824-43.964-41.847-78.678-33.382-41.3-82.09-84.65-140.322-123.63-136.875-91.614-305.46-147.559-474.897-147.559-74.309 0-148.48 11.674-220.229 33.178l-54.135-54.204c84.446-29.082 177.05-47.24 274.364-47.24z m-196.95 317.782l52.02 52.019a152.678 152.678 0 0 0 193.194 193.195l52.02 52.053a220.945 220.945 0 0 1-297.234-297.301z m196.916-120.593a220.945 220.945 0 0 1 196.915 321.297l-52.054-51.985a152.678 152.678 0 0 0-193.228-193.23L633.173 304.3a220.023 220.023 0 0 1 100.386-24.064z"  p-id="2184"></path></svg>