<svg t="1720509027210" class="icon" viewBox="0 0 1732 1024" version="1.1" xmlns="http://www.w3.org/2000/svg" p-id="2330" width="32" height="32"><path d="M872.802 34.462c462.218 0 836.924 328.704 836.924 482.461 0 48.955-37.928 115.594-104.527 183.69l-14.73 14.612-7.68 7.325-15.99 14.612a784.857 784.857 0 0 1-16.817 14.572l-17.605 14.494a1032.59 1032.59 0 0 1-18.432 14.375l-19.18 14.257c-153.207 110.79-375.06 204.525-621.963 204.525-296.014 0-558.237-145.684-707.19-283.885l-15.28-14.493c-14.81-14.494-28.358-28.79-40.567-42.811l-11.658-13.903a540.436 540.436 0 0 1-5.514-6.853l-10.28-13.509C51.2 581.711 34.817 544.098 35.84 516.923c1.024-24.852 15.95-58.447 42.732-96.374L88.537 407l10.91-13.864a307.66 307.66 0 0 1 5.828-7.089l12.327-14.257 6.499-7.208 13.706-14.572 14.572-14.73c5.041-4.923 10.161-9.885 15.478-14.848l16.305-14.887c13.943-12.446 28.751-24.891 44.348-37.258l19.101-14.77C400.423 138.123 623.065 34.463 872.763 34.463z m0 78.769c-192.433 0-384.236 67.899-544.925 179.436a956.967 956.967 0 0 0-107.441 86.725l-16.266 15.636a687.178 687.178 0 0 0-15.124 15.36l-13.903 14.887a505.698 505.698 0 0 0-33.792 41.196l-8.428 12.17c-11.54 17.566-17.96 31.941-18.353 41.472-0.67 17.723 26.86 59.235 73.964 107.599l14.69 14.69c33.084 32.217 74.044 66.64 120.518 98.62 161.792 111.34 356.233 179.593 549.06 179.593 195.545 0 390.105-64.512 547.998-170.22 67.19-45.017 123.392-94.996 161.87-142.69 32.336-40.015 48.286-73.965 48.286-90.782 0-16.817-15.95-50.727-48.246-90.781-38.518-47.656-94.72-97.674-161.91-142.652-157.932-105.708-352.453-170.26-547.998-170.26z m0 148.755a254.937 254.937 0 1 1 0 509.913 254.937 254.937 0 0 1 0-509.913z m0 78.77a176.167 176.167 0 1 0 0 352.374 176.167 176.167 0 0 0 0-352.374z"  p-id="2331"></path></svg>