<svg t="1722389164916" class="icon" viewBox="0 0 1024 1024" version="1.1" xmlns="http://www.w3.org/2000/svg" p-id="2566" width="200" height="200"><path d="M456.4 122.2c-216.3 0-391.7 175.4-391.7 391.7 0 216.3 175.4 391.7 391.7 391.7 216.3 0 391.7-175.4 391.7-391.7 0-216.4-175.3-391.7-391.7-391.7z m0 709.3c-175.4 0-317.6-142.2-317.6-317.6 0-175.4 142.2-317.6 317.6-317.6 175.4 0 317.6 142.2 317.6 317.6 0.1 175.4-142.1 317.6-317.6 317.6z" p-id="2567"></path><path d="M717.56 751.802l52.887-68.702 189.938 146.217-52.887 68.702z" p-id="2568"></path></svg>