<svg t="1720510490808" class="icon" viewBox="0 0 1024 1024" version="1.1" xmlns="http://www.w3.org/2000/svg" p-id="2477" width="32" height="32"><path d="M505.484 186.182a30.72 30.72 0 0 0-14.802 8.192l-311.11 311.11a30.72 30.72 0 0 0 0 43.566 30.72 30.72 0 0 0 43.613 0l289.42-289.42 289.373 289.374a30.72 30.72 0 0 0 43.567 0 30.72 30.72 0 0 0 0-43.567l-311.11-311.11a30.813 30.813 0 0 0-28.905-8.145z m0 279.97a30.72 30.72 0 0 0-14.802 8.24l-311.11 311.063a30.72 30.72 0 0 0 0 43.613 30.72 30.72 0 0 0 43.613 0l289.42-289.42 289.373 289.373a30.72 30.72 0 0 0 43.567 0 30.72 30.72 0 0 0 0-43.613l-311.11-311.063a30.813 30.813 0 0 0-28.905-8.192z"  p-id="2478"></path></svg>