<svg t="1719390665113" class="icon" viewBox="0 0 1024 1024" version="1.1" xmlns="http://www.w3.org/2000/svg" p-id="1292" width="32" height="32"><path d="M864.256 308.224c6.144 0 11.264 5.12 11.264 11.264v380.416c0 6.144-5.12 11.264-11.264 11.264H159.744c-6.144 0-11.264-5.12-11.264-11.264V319.488c0-6.144 5.12-11.264 11.264-11.264h704.512m0-20.48H159.744c-17.408 0-31.744 14.336-31.744 31.744v380.416c0 17.408 14.336 31.744 31.744 31.744h704c17.408 0 31.744-14.336 31.744-31.744V319.488c0.512-17.408-13.824-31.744-31.232-31.744z" fill="#347AF0" p-id="1293"></path><path d="M455.168 641.024c-4.096 0-9.216-1.536-12.8-4.096-7.68-5.12-12.8-12.8-12.8-22.016V409.088c0-9.216 5.12-17.92 12.8-22.016 7.68-5.12 17.92-5.12 25.6 0l179.2 102.912c7.68 5.12 12.8 12.8 12.8 22.016s-5.12 17.92-12.8 22.016l-179.2 102.912c-3.584 2.56-8.704 4.096-12.8 4.096z" fill="#347AF0" p-id="1294"></path></svg>