<?xml version="1.0" standalone="no"?><!DOCTYPE svg PUBLIC "-//W3C//DTD SVG 1.1//EN" "http://www.w3.org/Graphics/SVG/1.1/DTD/svg11.dtd"><svg t="1719212594472" class="icon" viewBox="0 0 1024 1024" version="1.1" xmlns="http://www.w3.org/2000/svg" p-id="20538" xmlns:xlink="http://www.w3.org/1999/xlink" width="200" height="200"><path d="M512 483.555556c110.933333 0 199.111111-88.177778 199.111111-199.111112s-88.177778-199.111111-199.111111-199.111111-199.111111 88.177778-199.111111 199.111111 88.177778 199.111111 199.111111 199.111112z m0-341.333334c79.644444 0 142.222222 62.577778 142.222222 142.222222s-62.577778 142.222222-142.222222 142.222223-142.222222-62.577778-142.222222-142.222223 62.577778-142.222222 142.222222-142.222222zM867.555556 694.044444c-184.888889-196.266667-494.933333-204.8-691.2-19.911111-5.688889 5.688889-14.222222 11.377778-19.911112 19.911111-8.533333 8.533333-14.222222 22.755556-14.222222 36.977778V881.777778c0 31.288889 25.6 56.888889 56.888889 56.888889h625.777778c31.288889 0 56.888889-25.6 56.888889-56.888889v-150.755556c0-14.222222-5.688889-28.444444-14.222222-36.977778zM824.888889 881.777778H199.111111v-150.755556c164.977778-173.511111 438.044444-179.2 608.711111-17.066666l17.066667 17.066666V881.777778z" p-id="20539"></path></svg>