<svg t="1720514506688" class="icon" viewBox="0 0 1024 1024" version="1.1" xmlns="http://www.w3.org/2000/svg" p-id="2771" width="32" height="32"><path d="M969.182 701.303c-26.196 60.515-61.621 113.092-106.273 157.727-44.636 44.652-97.045 80.092-157.182 106.273-60.151 26.212-124.544 39.303-193.181 39.303-68.62 0-133.197-13.09-193.728-39.303-60.515-26.181-113.091-61.621-157.727-106.273-44.652-44.636-80.092-97.212-106.273-157.727-26.212-60.53-39.303-125.106-39.303-193.727 0-68.638 13.09-133.03 39.303-193.182 26.181-60.137 61.621-112.546 106.273-157.182 44.636-44.652 97.212-80.077 157.727-106.273 60.531-26.196 125.107-39.303 193.728-39.303 68.637 0 133.03 13.107 193.181 39.303 60.136 26.198 112.546 61.621 157.182 106.273 44.652 44.637 80.076 97.046 106.273 157.182 26.196 60.151 39.303 124.544 39.303 193.182 0 68.621-13.106 133.197-39.303 193.727z" fill="#FF2E00" p-id="2772"></path><path d="M512 709.22c-39.668 0-71.797 32.13-71.797 71.797 0 39.668 32.13 71.797 71.797 71.797 39.668 0 71.797-32.129 71.797-71.797 0-39.667-32.13-71.796-71.797-71.796zM512 639.71c-19.816 0-35.898-33.513-35.898-74.89l-35.899-336.996c0-41.376 32.13-74.889 71.797-74.889 39.668 0 71.797 33.513 71.797 74.889L547.898 564.82c0 41.376-16.082 74.888-35.898 74.888z" fill="#FFFFFF" p-id="2773"></path></svg>