<svg t="1721379431554" class="icon" viewBox="0 0 1024 1024" version="1.1" xmlns="http://www.w3.org/2000/svg" p-id="2294" width="32" height="32"><path d="M793.390625 179.140625V90.125H230.609375v89.015625H91.390625v215.15625c0 87.75 67.078125 159.46875 152.71875 167.90625C277.4375 655.4375 366.03125 722.9375 471.078125 722.9375h5.90625v140.484375H306.96875V933.875h410.0625v-70.453125h-170.015625V722.9375h5.90625c105.046875 0 193.640625-67.078125 226.546875-160.734375 85.640625-8.4375 152.71875-80.15625 152.71875-167.90625v-215.15625h-138.796875zM161.84375 393.875V249.171875h68.765625V482.46875c0 1.6875 0.421875 3.796875 0.421875 5.484375C191.375 475.296875 161.84375 438.171875 161.84375 393.875z m501.609375-54.421875l-69.1875 67.5-5.484375 5.0625 18.140625 105.890625L512 467.703125l-95.34375 49.78125 18.140625-105.890625-5.0625-5.0625-69.1875-67.5-2.53125-2.53125 2.53125-0.421875L431 326.375l33.328125-5.0625L512 225.125l47.671875 96.1875 33.328125 5.0625 70.453125 10.125 2.53125 0.421875-2.53125 2.53125zM862.15625 393.875c0 44.296875-29.109375 81-69.1875 94.078125 0-1.6875 0.421875-3.796875 0.421875-5.484375V249.171875H862.15625V393.875z" p-id="2295"></path></svg>