<?xml version="1.0" encoding="utf-8"?>
<!-- Generator: Adobe Illustrator 25.0.0, SVG Export Plug-In . SVG Version: 6.00 Build 0)  -->
<svg version="1.1" id="图层_1" xmlns="http://www.w3.org/2000/svg" xmlns:xlink="http://www.w3.org/1999/xlink" x="0px" y="0px"
	 viewBox="0 0 200 200" style="enable-background:new 0 0 200 200;" xml:space="preserve">
<path d="M125.5,95.9L174,53.8l7.1-34.7l-34.6,7.3l-40.6,47.4L125.5,95.9z"/>
<path d="M132.4,115.5l7.9-7.9l10.9,10.9l-8.2,8.2l21.8,21.8l5.4-5.4l10.9,10.9l-27.2,27.2l-10.9-10.9l5.4-5.4l-21.8-21.8l-8.2,8.2
	l-10.9-10.9l8.4-8.4l-15.4-13.4l-15.9,14l7.9,7.9l-10.9,10.9l-8.2-8.2l-21.8,21.8l5.4,5.4l-10.9,10.9l-27.2-27.2L30.1,143l5.4,5.4
	l21.8-21.8l-8.2-8.2L60,107.6l8.4,8.4l12.7-14.6L26.4,53.8l-7.3-34.6l34.7,7.1L132.4,115.5z"/>
</svg>
