<svg t="1721618542627" class="icon" viewBox="0 0 1024 1024" version="1.1" xmlns="http://www.w3.org/2000/svg" p-id="2203" width="32" height="32"><path d="M847.54432 247.98280311h51.09154196a55.23406444 55.23406444 0 0 1 55.2327699 55.23406444v276.1677331a55.23406444 55.23406444 0 0 1-55.2327699 55.23406444h-100.55326024L566.95703325 300.73135408l-26.8707309-38.05554158-164.48532733 75.94538225a55.23406444 55.23406444 0 0 1-34.0243494 4.00530141c-50.20737232-10.08056951-67.05319885-27.6448648-50.53877412-52.72136565 15.99013673-24.27518167 84.03754098-73.10128165 204.17069259-146.53396512a63.23172187 63.23172187 0 0 1 9.74916772-4.91665636c50.45592368-23.74959913 108.03698599-15.18881755 172.71600165 25.71211915a889.53808972 889.53808972 0 0 0 169.84342124 83.81617493z m-739.68881209 383.79176139a55.23406444 55.23406444 0 0 1-37.72413977-52.38996385V303.21686755a55.23406444 55.23406444 0 0 1 55.2327699-55.23406444h127.36962054l-0.22136605 0.19418075a71.52712311 71.52712311 0 0 0 2.95543088 108.80982535 148.38515485 148.38515485 0 0 0 144.02126633 23.94377986l124.24848877-45.2920105 87.1301929 125.93268306a55.50980109 55.50980109 0 0 1 7.2079891 8.45074584L770.79761857 690.73689917a55.23406444 55.23406444 0 0 1-20.90679309 80.91770373l-243.96609359 120.71310475A54.95703325 54.95703325 0 0 1 470.57477531 897.00603828l9.03069898-9.14073473a110.46683433 110.46683433 0 0 0 0-155.31740728L302.85828045 553.70096133a82.85044939 82.85044939 0 0 0-117.86900416 0l-77.16095368 78.07360317z m173.1574392-23.75089366l156.75305024 158.57576011a55.23406444 55.23406444 0 0 1 14.0845764 52.9971023l-7.897978 29.90901223a42.58513099 42.58513099 0 0 1-66.3916898 23.39101203L176.01553698 724.64991826a55.23406444 55.23406444 0 0 1-6.54518549-83.32036677l32.94599901-33.36025126a55.23406444 55.23406444 0 0 1 78.57070585 0z" p-id="2204"></path></svg>