<?xml version="1.0" encoding="utf-8"?>
<!-- Generator: Adobe Illustrator 28.0.0, SVG Export Plug-In . SVG Version: 6.00 Build 0)  -->
<svg version="1.1" id="图层_1" xmlns="http://www.w3.org/2000/svg" xmlns:xlink="http://www.w3.org/1999/xlink" x="0px" y="0px"
	 viewBox="0 0 200 200" style="enable-background:new 0 0 200 200;" xml:space="preserve">
<path d="M167.1,37.8V19.2h9.7c5.4,0,9.7-4.2,9.7-9.3s-4.4-9.3-9.7-9.3H23.2c-5.4,0-9.7,4.2-9.7,9.3s4.4,9.3,9.7,9.3h9.7v18.7H0.5
	v37.3c0,20.2,16.7,36.7,37.8,37.3c8.5,18.6,25.8,32,46.4,36.1v26.1h-26c-7,0-12.9,5.6-12.9,12.4v0.1c0,6.8,5.8,12.4,12.9,12.4h82.5
	c7,0,12.9-5.6,12.9-12.4c0-6.9-5.8-12.4-12.9-12.4h-26v-26.1c20.7-4.1,38-17.5,46.4-36.1c21-0.6,37.8-17.1,37.8-37.3V37.8H167.1z
	 M19.9,75.1V56.5h13v31.1c0,1.7,0.1,3.5,0.2,5.2C25.2,90.2,19.9,83.1,19.9,75.1z M130.2,68.1l-7.7,7.5c-1.6,1.6-2.3,3.8-1.9,6
	l1.8,10.6c0.9,5.5-4.8,9.7-9.8,7.1l-9.5-5c-2-1-4.3-1-6.3,0l-9.5,5c-5,2.6-10.7-1.6-9.8-7.1l1.8-10.6c0.4-2.2-0.4-4.4-1.9-6
	l-7.7-7.5c-4-3.9-1.8-10.7,3.7-11.5L84.1,55c2.2-0.3,4.1-1.7,5.1-3.7l4.7-9.6c2.5-5,9.6-5,12.1,0l4.7,9.6c1,2,2.9,3.4,5.1,3.7
	l10.6,1.5C132,57.3,134.3,64.1,130.2,68.1z M180.1,75.1c0,8-5.3,15.1-13.2,17.7c0.1-1.7,0.2-3.5,0.2-5.2V56.5h13V75.1z"/>
</svg>
