<?xml version="1.0" encoding="utf-8"?>
<!-- Generator: Adobe Illustrator 28.0.0, SVG Export Plug-In . SVG Version: 6.00 Build 0)  -->
<svg version="1.1" id="图层_1" xmlns="http://www.w3.org/2000/svg" xmlns:xlink="http://www.w3.org/1999/xlink" x="0px" y="0px"
	 viewBox="0 0 200 200" style="enable-background:new 0 0 200 200;" xml:space="preserve">
<path d="M194.1,49.5L163,20.4c-0.6-0.6-1.2-1.1-1.9-1.6v-0.3h-0.3c-7.2-5.2-17.4-4.6-23.9,1.9l-12.4,8.4c-6.8,4.8-15.2,6.6-24.1,6.6
	c-10.1,0-19.4-2.5-26.6-8.5l-10.5-6.5c-7.2-7.2-18.9-7.2-26.1,0L5.9,49.5c-7.2,7.2-7.2,18.9,0,26.1l16.7,19.7c4.5,4.5,11,6.2,16.9,5
	V160c0,13.7,11.2,25,25,25h71.7c13.7,0,25-11.2,25-25v-59.4c5.7,1,11.8-0.7,16.2-5.1l16.7-19.7C201.3,68.5,201.3,56.7,194.1,49.5z"
	/>
</svg>
