<?xml version="1.0" encoding="utf-8"?>
<!-- Generator: Adobe Illustrator 28.0.0, SVG Export Plug-In . SVG Version: 6.00 Build 0)  -->
<svg version="1.1" id="图层_1" xmlns="http://www.w3.org/2000/svg" xmlns:xlink="http://www.w3.org/1999/xlink" x="0px" y="0px"
	 viewBox="0 0 200 200" style="enable-background:new 0 0 200 200;" xml:space="preserve">
<path d="M194.8,28.5c-2.9-2.3-6.7-3.4-10.5-3.4c-0.4,0-0.7,0-1.1,0c-0.2,0-2.7,0.2-6.5,0.2c-6.5,0-18.8-0.4-30.6-2.8
	c-15.2-3-32.8-17.1-38-19.9c-2.5-1.3-5.6-2.1-8.5-2.1c-2.9,0-5.8,0.8-8.5,2.1c-0.7,0.4-19,16.4-36.9,19.9
	c-11.8,2.4-24.6,2.8-30.8,2.8c-4,0-6.5-0.2-6.7-0.2s-0.7,0-0.9,0c-4,0-7.6,1.1-10.5,3.4c-3.1,2.3-4.9,5.6-4.9,9v31.2
	c0,115.1,92.7,130,96.5,130.5c0.9,0.2,1.8,0.2,2.7,0.2c0.9,0,1.8,0,2.7-0.2c4-0.6,97.2-15.4,97.2-130.5V37.6
	C199.5,34.2,197.7,30.8,194.8,28.5z M150.6,79l-54.8,54.8c-0.3,0.4-0.6,0.8-1,1.2h0c-2,2-4.6,2.9-7.2,2.9c-2.6,0-5.2-0.9-7.2-2.9h0
	c-0.4-0.4-0.7-0.8-1-1.2L49.4,104c-3.9-3.9-3.9-10.3,0-14.1v0c3.9-3.9,10.3-3.9,14.1,0l23.9,23.9l48.9-48.9c3.9-3.9,10.3-3.9,14.1,0
	v0C154.4,68.8,154.4,75.2,150.6,79z"/>
</svg>
