<?xml version="1.0" encoding="utf-8"?>
<!-- Generator: Adobe Illustrator 28.0.0, SVG Export Plug-In . SVG Version: 6.00 Build 0)  -->
<svg version="1.1" id="图层_1" xmlns="http://www.w3.org/2000/svg" xmlns:xlink="http://www.w3.org/1999/xlink" x="0px" y="0px"
	 viewBox="0 0 200 200" style="enable-background:new 0 0 200 200;" xml:space="preserve">
<path d="M170,169.9c7-8.3,7.7-6.7,16.4-21.3C217.8,96.5,190.4,23,128.6,5.2C41.5-20-33.7,73.8,16.8,153.7
	c11.1,17.6,31.8,35.1,58.2,41.7c20,5.1,72.2,3.2,95.6,3.2c-1.1-6.9-3.7-13.6-4.3-20.9C165.7,172.2,167,173.5,170,169.9z M57.2,114.6
	c-8.1,0-14.6-6.5-14.6-14.6c0-8.1,6.5-14.6,14.6-14.6s14.6,6.5,14.6,14.6C71.8,108.1,65.2,114.6,57.2,114.6z M100,114.6
	c-8.1,0-14.6-6.5-14.6-14.6c0-8.1,6.5-14.6,14.6-14.6s14.6,6.5,14.6,14.6C114.6,108.1,108.1,114.6,100,114.6z M142.8,114.6
	c-8.1,0-14.6-6.5-14.6-14.6c0-8.1,6.5-14.6,14.6-14.6s14.6,6.5,14.6,14.6C157.4,108.1,150.9,114.6,142.8,114.6z"/>
</svg>
