<?xml version="1.0" encoding="utf-8"?>
<!-- Generator: Adobe Illustrator 28.0.0, SVG Export Plug-In . SVG Version: 6.00 Build 0)  -->
<svg version="1.1" id="图层_1" xmlns="http://www.w3.org/2000/svg" xmlns:xlink="http://www.w3.org/1999/xlink" x="0px" y="0px"
	 viewBox="0 0 200 200" style="enable-background:new 0 0 200 200;" xml:space="preserve">
<path d="M127.6,38.4c3.6,0,6.8,0.8,9.7,2.3c2.8,1.6,5.3,3.5,7.3,5.8c2,2.3,3.6,4.8,4.7,7.4c1.1,2.6,1.6,5,1.6,7v102
	c0,3.5-0.7,6.6-2.1,9.4c-1.4,2.8-3.2,5.1-5.4,7c-2.2,1.9-4.7,3.4-7.5,4.5c-2.8,1.1-5.5,1.6-8.3,1.6h-89c-2.3,0-4.8-0.7-7.5-2
	c-2.7-1.3-5.2-3.1-7.6-5.2s-4.3-4.7-5.9-7.5c-1.6-2.8-2.3-5.7-2.3-8.6V61.7c0-2.5,0.6-5.1,1.8-7.9c1.2-2.7,2.8-5.2,4.7-7.5
	s4.2-4.2,6.7-5.7s5.2-2.3,7.9-2.3L127.6,38.4L127.6,38.4z M117,151.3c3.1,0,5.8-1.1,8-3.2c2.2-2.2,3.3-4.8,3.3-7.9
	c0-3.1-1.1-5.8-3.3-8c-2.2-2.2-4.9-3.3-8-3.3H49.3c-3.1,0-5.8,1.1-8,3.3c-2.2,2.2-3.3,4.9-3.3,8c0,3.1,1.1,5.8,3.3,7.9
	c2.2,2.2,4.9,3.2,8,3.2H117z M117,106.1c3.1,0,5.8-1.1,8-3.2s3.3-4.8,3.3-7.9c0-3.1-1.1-5.8-3.3-8s-4.9-3.3-8-3.3H49.3
	c-3.1,0-5.8,1.1-8,3.3c-2.2,2.2-3.3,4.9-3.3,8c0,3.1,1.1,5.8,3.3,7.9c2.2,2.2,4.9,3.2,8,3.2H117z M148.9,4.5c5.2,0,9.9,1.5,14.3,4.6
	c4.3,3.1,8.1,6.9,11.3,11.4s5.7,9.4,7.5,14.6c1.8,5.2,2.7,10,2.7,14.4v95.9c0,2.5-0.8,4.8-2.3,6.9c-1.5,2.1-3.3,3.9-5.5,5.4
	c-2.2,1.5-4.5,2.7-7,3.6c-2.5,0.9-4.9,1.4-7,1.4h-0.7V54.9c-1-8.3-3.6-14.7-7.8-19.1c-4.2-4.5-9.8-7.3-16.8-8.7H49.5
	c0.1-0.2,0.2-0.7,0.2-1.3c0-2.4,0.7-4.9,2.2-7.4c1.4-2.5,3.3-4.8,5.7-6.9s5-3.7,7.9-5.1c2.9-1.3,5.8-2,8.7-2L148.9,4.5L148.9,4.5z"
	/>
</svg>
