<?xml version="1.0" encoding="utf-8"?>
<!-- Generator: Adobe Illustrator 28.0.0, SVG Export Plug-In . SVG Version: 6.00 Build 0)  -->
<svg version="1.1" id="图层_1" xmlns="http://www.w3.org/2000/svg" xmlns:xlink="http://www.w3.org/1999/xlink" x="0px" y="0px"
	 viewBox="0 0 200 200" style="enable-background:new 0 0 200 200;" xml:space="preserve">
<path d="M100,0.5C45,0.5,0.5,45,0.5,100S45,199.5,100,199.5s99.5-44.5,99.5-99.5S155,0.5,100,0.5z M96.8,160.1
	c-6.4,0-11.5-5.3-11.5-11.8c0-6.5,5.2-11.8,11.5-11.8c6.4,0,11.5,5.3,11.5,11.8C108.4,154.9,103.2,160.1,96.8,160.1z M129,86.3
	c-1.6,3-3.5,5.7-5.7,7.9c-2.2,2.2-6.1,5.9-11.8,11.1c-1.6,1.5-2.8,2.8-3.8,3.9c-0.9,1.1-1.6,2.1-2.1,3.1c-0.5,0.9-0.8,1.9-1.1,2.8
	c-0.2,0.9-0.6,2.6-1.1,4.9c-0.9,4.9-3.6,7.4-8.2,7.4c-2.4,0-4.4-0.8-6-2.4c-1.6-1.6-2.5-4-2.5-7.2c0-4,0.6-7.4,1.8-10.4
	c1.2-2.9,2.8-5.5,4.8-7.7c2-2.2,4.6-4.8,8-7.9c3-2.7,5.1-4.6,6.4-6c1.3-1.3,2.4-2.8,3.3-4.5c0.9-1.7,1.3-3.4,1.3-5.4
	c0-3.8-1.4-7-4.1-9.6c-2.7-2.6-6.3-3.9-10.6-3.9c-5.1,0-8.8,1.3-11.2,4c-2.4,2.6-4.4,6.5-6.1,11.6c-1.6,5.4-4.6,8-8.9,8
	c-2.6,0-4.8-0.9-6.6-2.8c-1.8-1.9-2.7-3.9-2.7-6.1c0-4.5,1.4-9.1,4.2-13.7c2.8-4.6,6.9-8.5,12.3-11.5c5.4-3,11.7-4.6,18.9-4.6
	c6.7,0,12.6,1.3,17.7,3.8c5.1,2.5,9.1,6,11.9,10.4c2.8,4.4,4.2,9.1,4.2,14.2C131.4,79.7,130.6,83.2,129,86.3z"/>
</svg>
