<?xml version="1.0" encoding="utf-8"?>
<!-- Generator: Adobe Illustrator 28.0.0, SVG Export Plug-In . SVG Version: 6.00 Build 0)  -->
<svg version="1.1" id="图层_1" xmlns="http://www.w3.org/2000/svg" xmlns:xlink="http://www.w3.org/1999/xlink" x="0px" y="0px"
	 viewBox="0 0 200 200" style="enable-background:new 0 0 200 200;" xml:space="preserve">
<path d="M54.6,149.2c11.2,10.4,41.4-11.1,63.9-28.1c22.5-17,40.3-35.8,40.3-35.8v74.3l-40.3,39.9H1.1V25.2h135.3
	c0,0-31.2,31.1-50.8,53.2S43.4,138.8,54.6,149.2z M67.3,134.4c-5.6-5.7,23.5-43,23.5-43l18.8,19.1
	C109.5,110.6,72.9,140.1,67.3,134.4z M95.7,86.4l65.7-66.8l18.8,19.1l-65.7,66.8L95.7,86.4L95.7,86.4z M180.2,0.5l18.8,19.1
	l-13.8,14l-18.8-19.1L180.2,0.5L180.2,0.5z"/>
</svg>
