<?xml version="1.0" encoding="utf-8"?>
<!-- Generator: Adobe Illustrator 28.0.0, SVG Export Plug-In . SVG Version: 6.00 Build 0)  -->
<svg version="1.1" id="图层_1" xmlns="http://www.w3.org/2000/svg" xmlns:xlink="http://www.w3.org/1999/xlink" x="0px" y="0px"
	 viewBox="0 0 200 200" style="enable-background:new 0 0 200 200;" xml:space="preserve">
<g>
	<path d="M111.5,101.7c13-9.9,21.5-25.9,21.5-43.9c0-30.1-23.6-54.6-52.7-54.6c-29.1,0-52.7,24.4-52.7,54.6c0,18,8.5,34,21.5,43.9
		c-28.6,11.8-51,47.6-48.8,69.9c2.4,24.2,42.7,25.2,85.8,25.2s72.3-0.9,74.1-25.2C162.2,146.9,141.4,113.7,111.5,101.7z"/>
	<path d="M199.4,163.1c1-15.3-11.8-50.6-36.6-60.6c10.8-8.3,14-21.7,14-36.8c0-25.2-7.9-46.3-32-45.7c-5,0.1-6.8,2-8.1,3.2
		c7.5,9.4,12,21.5,12,34.6c0,18-4.6,34-17.6,43.9c29.9,11.9,44.9,51.6,44.9,69.9c0,5.2-1.5,9.2-4.1,12.5
		C193.6,184.8,198.5,176.1,199.4,163.1z"/>
</g>
</svg>
